<svg width="149" height="149" viewBox="0 0 149 149" fill="none" xmlns="http://www.w3.org/2000/svg">
<g id="approval (1) 1" clip-path="url(#clip0_330_6608)">
<path id="Vector" d="M108.646 149C86.3952 149 68.2917 130.896 68.2917 108.646C68.2917 86.3951 86.3952 68.2916 108.646 68.2916C130.897 68.2916 149 86.3951 149 108.646C149 130.896 130.897 149 108.646 149ZM108.646 74.5C89.816 74.5 74.5001 89.8159 74.5001 108.646C74.5001 127.476 89.816 142.792 108.646 142.792C127.476 142.792 142.792 127.476 142.792 108.646C142.792 89.8159 127.476 74.5 108.646 74.5Z" fill="#495867"/>
<path id="Vector_2" d="M102.437 124.167C101.618 124.167 100.823 123.838 100.24 123.26L87.823 110.844C86.6124 109.633 86.6124 107.665 87.823 106.454C89.0336 105.244 91.0017 105.244 92.2123 106.454L102.282 116.524L121.826 94.1867C122.956 92.8892 124.918 92.7588 126.209 93.8949C127.5 95.0248 127.631 96.9867 126.501 98.278L104.772 123.111C104.207 123.757 103.394 124.142 102.537 124.167C102.506 124.167 102.468 124.167 102.437 124.167Z" fill="#495867"/>
<path id="Vector_3" d="M62.1268 65.1875C60.9845 65.1875 59.8918 64.5604 59.3455 63.474C58.5819 61.9405 59.2027 60.0718 60.7362 59.3082L119.678 29.8186C120.634 29.3344 121.776 29.384 122.695 29.9552C123.608 30.5201 124.167 31.5197 124.167 32.5937V58.9792C124.167 60.6927 122.776 62.0833 121.063 62.0833C119.349 62.0833 117.958 60.6927 117.958 58.9792V37.6163L63.5113 64.8584C63.0643 65.0819 62.5924 65.1875 62.1268 65.1875Z" fill="#F56617"/>
<path id="Vector_4" d="M58.9357 124.167C58.4266 124.167 57.9051 124.042 57.4271 123.776L1.58933 92.7339C0.614625 92.1875 0 91.1507 0 90.0208V32.5937C0 31.5197 0.55875 30.5201 1.47138 29.9552C2.384 29.384 3.53875 29.3344 4.48863 29.8186L63.4305 59.3082C64.964 60.078 65.5848 61.9405 64.8212 63.474C64.0576 65.0074 62.1889 65.6283 60.6554 64.8647L6.20833 37.6163V88.1956L60.4505 118.349C61.9468 119.181 62.4869 121.069 61.655 122.571C61.0838 123.589 60.0284 124.167 58.9357 124.167Z" fill="#F56617"/>
<path id="Vector_5" d="M121.062 35.6974C120.597 35.6974 120.125 35.5918 119.678 35.3683L62.0459 6.57408L4.4946 35.3683C2.96114 36.1257 1.09243 35.5173 0.328808 33.9839C-0.434817 32.4504 0.179808 30.5817 1.71327 29.8181L60.6552 0.328501C61.5306 -0.106082 62.5611 -0.106082 63.4303 0.328501L122.447 29.8181C123.98 30.5879 124.601 32.4504 123.837 33.9839C123.297 35.0703 122.198 35.6974 121.062 35.6974Z" fill="#F56617"/>
<path id="Vector_6" d="M31.3086 72.8796C29.5951 72.8796 28.2045 71.4889 28.2045 69.7754V46.6928C28.2045 45.5195 28.8688 44.4454 29.918 43.9177L88.8599 14.4281C90.3933 13.6645 92.2558 14.2853 93.0257 15.8188C93.7955 17.3523 93.1685 19.2148 91.635 19.9846L34.4128 48.6174V69.7816C34.4128 71.4951 33.0283 72.8796 31.3086 72.8796Z" fill="#F56617"/>
</g>
<defs>
<clipPath id="clip0_330_6608">
<rect width="149" height="149" fill="white"/>
</clipPath>
</defs>
</svg>
